<?xml version="1.0" encoding="UTF-8"?>
<!DOCTYPE svg PUBLIC "-//W3C//DTD SVG 1.1//EN" "http://www.w3.org/Graphics/SVG/1.1/DTD/svg11.dtd">
<svg xmlns="http://www.w3.org/2000/svg" version="1.1" width="500px" height="500px" style="shape-rendering:geometricPrecision; text-rendering:geometricPrecision; image-rendering:optimizeQuality; fill-rule:evenodd; clip-rule:evenodd" xmlns:xlink="http://www.w3.org/1999/xlink">
<g><path style="opacity:0.999" fill="#8e1e1b" d="M 296.5,120.5 C 306.147,124.315 311.981,131.315 314,141.5C 314.792,148.247 314.626,154.914 313.5,161.5C 312.301,171.89 312.301,182.223 313.5,192.5C 314.087,203.824 314.42,215.157 314.5,226.5C 314.5,229.167 314.5,231.833 314.5,234.5C 313.721,243.915 311.888,253.249 309,262.5C 305.414,268.091 301.08,273.091 296,277.5C 297.411,301.593 286.244,311.926 262.5,308.5C 255.5,308.5 248.5,308.5 241.5,308.5C 232.161,308.666 222.827,308.5 213.5,308C 209.8,307.157 206.8,305.324 204.5,302.5C 224.637,302.954 244.804,303.287 265,303.5C 270.293,303.684 274.793,302.017 278.5,298.5C 282.098,296.674 284.265,293.674 285,289.5C 285.17,283.472 285.67,277.472 286.5,271.5C 296.565,266.253 302.065,257.92 303,246.5C 304.834,223.836 304.667,201.17 302.5,178.5C 303.432,166.512 304.099,154.512 304.5,142.5C 304.608,138.753 304.108,135.086 303,131.5C 301.314,127.448 299.148,123.781 296.5,120.5 Z"/></g>
<g><path style="opacity:1" fill="#fae7cd" d="M 304.5,142.5 C 304.099,154.512 303.432,166.512 302.5,178.5C 304.667,201.17 304.834,223.836 303,246.5C 302.065,257.92 296.565,266.253 286.5,271.5C 285.67,277.472 285.17,283.472 285,289.5C 284.265,293.674 282.098,296.674 278.5,298.5C 257.164,298.667 235.831,298.5 214.5,298C 213.473,297.487 212.473,296.987 211.5,296.5C 210.308,294.887 209.308,293.22 208.5,291.5C 208.803,277.179 205.969,263.512 200,250.5C 195.671,230.733 194.338,210.733 196,190.5C 200.394,179.592 208.061,176.259 219,180.5C 227.754,170.869 238.087,168.869 250,174.5C 256.079,169.071 262.912,168.071 270.5,171.5C 271.112,162.127 271.945,152.794 273,143.5C 276.46,130.687 284.293,126.853 296.5,132C 300.048,134.975 302.714,138.475 304.5,142.5 Z"/></g>
<g><path style="opacity:1" fill="#c02321" d="M 284.5,134.5 C 290.477,134.071 294.977,136.404 298,141.5C 297.324,164.169 297.49,186.836 298.5,209.5C 292.804,209.447 287.138,209.78 281.5,210.5C 282.193,201.24 281.027,192.24 278,183.5C 275.747,169.401 276.08,155.401 279,141.5C 279.967,138.379 281.8,136.046 284.5,134.5 Z"/></g>
<g><path style="opacity:1" fill="#cd5050" d="M 285.5,138.5 C 288.798,138.016 291.464,139.016 293.5,141.5C 289.431,145.399 285.931,149.733 283,154.5C 281.488,159.393 280.488,164.393 280,169.5C 279.355,160.801 279.688,152.135 281,143.5C 282.025,141.313 283.525,139.646 285.5,138.5 Z"/></g>
<g><path style="opacity:0.865" fill="#bac2cd" d="M 261.5,147.5 C 261.5,151.5 261.5,155.5 261.5,159.5C 256.728,160.093 252.061,161.093 247.5,162.5C 247.334,157.489 247.501,152.489 248,147.5C 252.436,146.526 256.936,146.526 261.5,147.5 Z"/></g>
<g><path style="opacity:0.957" fill="#2e7733" d="M 313.5,161.5 C 324.9,165.048 336.233,168.882 347.5,173C 352.529,175.121 357.362,177.621 362,180.5C 362.5,181.5 363,182.5 363.5,183.5C 362.873,186.702 362.206,189.869 361.5,193C 361.833,193.333 362.167,193.667 362.5,194C 361.772,200.133 361.105,206.299 360.5,212.5C 358.02,211.758 355.687,210.758 353.5,209.5C 350.192,207.433 346.859,205.266 343.5,203C 336.888,200.91 330.555,198.243 324.5,195C 320.896,193.846 317.229,193.013 313.5,192.5C 312.301,182.223 312.301,171.89 313.5,161.5 Z"/></g>
<g><path style="opacity:1" fill="#bf2522" d="M 296.5,120.5 C 299.148,123.781 301.314,127.448 303,131.5C 304.108,135.086 304.608,138.753 304.5,142.5C 302.714,138.475 300.048,134.975 296.5,132C 284.293,126.853 276.46,130.687 273,143.5C 271.945,152.794 271.112,162.127 270.5,171.5C 262.912,168.071 256.079,169.071 250,174.5C 238.087,168.869 227.754,170.869 219,180.5C 208.061,176.259 200.394,179.592 196,190.5C 194.338,210.733 195.671,230.733 200,250.5C 205.969,263.512 208.803,277.179 208.5,291.5C 206.79,290.526 205.623,288.526 205,285.5C 203.848,279.23 203.182,272.897 203,266.5C 194.025,243.712 190.025,220.045 191,195.5C 188.594,207.385 187.927,219.385 189,231.5C 191.336,242.175 194.67,252.509 199,262.5C 199.306,272.312 200.64,281.978 203,291.5C 204.458,293.96 206.291,296.127 208.5,298C 209.788,298.239 210.788,297.739 211.5,296.5C 212.473,296.987 213.473,297.487 214.5,298C 235.831,298.5 257.164,298.667 278.5,298.5C 274.793,302.017 270.293,303.684 265,303.5C 244.804,303.287 224.637,302.954 204.5,302.5C 202.016,300.88 200.516,298.547 200,295.5C 198.75,290.58 198.25,285.58 198.5,280.5C 198.054,275.187 196.721,270.187 194.5,265.5C 194.204,263.597 193.537,261.93 192.5,260.5C 190.153,251.787 188.153,243.12 186.5,234.5C 186.5,231.833 186.5,229.167 186.5,226.5C 186.826,218.316 186.492,210.316 185.5,202.5C 185.5,200.833 185.5,199.167 185.5,197.5C 185.46,194.119 185.793,190.786 186.5,187.5C 187.736,185.351 188.736,183.018 189.5,180.5C 196.918,171.465 206.585,167.298 218.5,168C 220.618,166.951 222.284,165.451 223.5,163.5C 231.406,160.129 239.406,159.796 247.5,162.5C 252.061,161.093 256.728,160.093 261.5,159.5C 261.5,155.5 261.5,151.5 261.5,147.5C 262.79,139.146 266.123,131.646 271.5,125C 279.115,119.714 287.448,118.214 296.5,120.5 Z"/></g>
<g><path style="opacity:1" fill="#cd4f4f" d="M 231.5,163.5 C 237.243,162.803 242.076,164.47 246,168.5C 246.688,169.332 246.521,169.998 245.5,170.5C 236.39,165.243 228.723,166.743 222.5,175C 216.247,176.204 209.914,176.871 203.5,177C 198.091,178.91 194.091,182.41 191.5,187.5C 191.88,181.94 194.547,177.44 199.5,174C 206.707,172.346 214.04,171.346 221.5,171C 224.734,168.252 228.068,165.752 231.5,163.5 Z"/></g>
<g><path style="opacity:1" fill="#cd4f4f" d="M 285.5,122.5 C 287.527,122.338 289.527,122.505 291.5,123C 272.741,130.325 264.574,144.158 267,164.5C 266.044,165.894 264.711,166.561 263,166.5C 258.462,164.472 254.796,165.472 252,169.5C 251.37,167.097 252.203,165.263 254.5,164C 257.659,163.989 260.493,163.155 263,161.5C 262.896,149.909 265.896,139.242 272,129.5C 275.975,125.931 280.475,123.597 285.5,122.5 Z"/></g>
<g><path style="opacity:1" fill="#c02421" d="M 268.5,211.5 C 270.042,210.859 271.376,209.859 272.5,208.5C 269.23,206.733 266.397,204.4 264,201.5C 262.946,194.552 262.112,187.552 261.5,180.5C 260.108,181.605 258.941,182.939 258,184.5C 257.189,192.289 257.856,199.956 260,207.5C 261.025,209.687 262.525,211.354 264.5,212.5C 262.139,212.674 259.806,213.007 257.5,213.5C 257.244,202.207 255.911,191.04 253.5,180C 257.711,173.917 263.044,172.917 269.5,177C 274.998,187.815 277.332,199.315 276.5,211.5C 273.833,211.5 271.167,211.5 268.5,211.5 Z"/></g>
<g><path style="opacity:1" fill="#c02321" d="M 232.5,176.5 C 238.279,175.708 243.446,177.041 248,180.5C 250.646,191.022 251.98,201.689 252,212.5C 250.52,215.663 248.02,217.496 244.5,218C 238.325,220.786 232.825,219.952 228,215.5C 227.204,205.226 225.704,195.06 223.5,185C 223.903,183.527 224.57,182.194 225.5,181C 227.898,179.476 230.231,177.976 232.5,176.5 Z"/></g>
<g><path style="opacity:1" fill="#cd4f4f" d="M 268.5,211.5 C 267.167,211.833 265.833,212.167 264.5,212.5C 262.525,211.354 261.025,209.687 260,207.5C 257.856,199.956 257.189,192.289 258,184.5C 258.941,182.939 260.108,181.605 261.5,180.5C 262.112,187.552 262.946,194.552 264,201.5C 266.397,204.4 269.23,206.733 272.5,208.5C 271.376,209.859 270.042,210.859 268.5,211.5 Z"/></g>
<g><path style="opacity:1" fill="#c12623" d="M 208.5,183.5 C 212.425,183.196 215.758,184.363 218.5,187C 219.666,193.165 220.833,199.332 222,205.5C 223.652,211.964 222.152,217.464 217.5,222C 209.847,224.758 204.681,222.258 202,214.5C 200.945,206.851 200.612,199.185 201,191.5C 203.028,188.308 205.528,185.641 208.5,183.5 Z"/></g>
<g><path style="opacity:1" fill="#cd5050" d="M 230.5,185.5 C 232.127,191.827 233.294,198.494 234,205.5C 236.087,209.302 239.254,211.802 243.5,213C 240.414,216.017 236.748,217.017 232.5,216C 231.299,215.097 230.465,213.931 230,212.5C 228.342,204.897 227.675,197.23 228,189.5C 229.095,188.307 229.928,186.973 230.5,185.5 Z"/></g>
<g><path style="opacity:1" fill="#cd5050" d="M 205.5,189.5 C 206.953,196.254 208.453,203.254 210,210.5C 212.13,213.23 214.797,215.23 218,216.5C 218.456,217.744 217.956,218.577 216.5,219C 213.5,219.667 210.5,219.667 207.5,219C 204.98,212.42 203.314,205.587 202.5,198.5C 202.67,195.174 203.67,192.174 205.5,189.5 Z"/></g>
<g><path style="opacity:1" fill="#00617e" d="M 189.5,180.5 C 188.736,183.018 187.736,185.351 186.5,187.5C 186.265,186.903 185.765,186.57 185,186.5C 179.832,187.554 174.999,189.388 170.5,192C 162.893,196.609 155.559,201.609 148.5,207C 138.308,216.523 130.475,227.69 125,240.5C 123.89,242.037 122.39,242.703 120.5,242.5C 120.34,240.801 120.506,239.134 121,237.5C 135.284,208.268 158.117,189.268 189.5,180.5 Z"/></g>
<g><path style="opacity:0.904" fill="#bdc6d0" d="M 383.5,220.5 C 381.929,215.689 378.596,212.689 373.5,211.5C 372.207,209.704 370.707,208.037 369,206.5C 368.668,201.146 369.001,195.813 370,190.5C 370.804,189.196 371.971,188.529 373.5,188.5C 381.503,192.34 388.503,197.506 394.5,204C 393.342,209.791 392.175,215.624 391,221.5C 390.612,222.428 389.945,223.095 389,223.5C 386.915,222.876 385.082,221.876 383.5,220.5 Z"/></g>
<g><path style="opacity:1" fill="#cd4f4f" d="M 208.5,291.5 C 209.308,293.22 210.308,294.887 211.5,296.5C 210.788,297.739 209.788,298.239 208.5,298C 206.291,296.127 204.458,293.96 203,291.5C 200.64,281.978 199.306,272.312 199,262.5C 194.67,252.509 191.336,242.175 189,231.5C 187.927,219.385 188.594,207.385 191,195.5C 190.025,220.045 194.025,243.712 203,266.5C 203.182,272.897 203.848,279.23 205,285.5C 205.623,288.526 206.79,290.526 208.5,291.5 Z"/></g>
<g><path style="opacity:1" fill="#c02220" d="M 297.5,214.5 C 298.492,221.648 298.825,228.981 298.5,236.5C 300.205,251.433 294.371,262.099 281,268.5C 280.958,276.475 280.125,284.308 278.5,292C 275.456,293.072 272.29,293.572 269,293.5C 251.511,293.083 234.011,292.916 216.5,293C 215.333,292.5 214.5,291.667 214,290.5C 213.388,282.829 212.722,275.162 212,267.5C 205.149,253.954 201.815,239.621 202,224.5C 211.316,230.754 219.316,229.42 226,220.5C 227.579,222.041 229.413,223.208 231.5,224C 236.535,224.418 241.535,224.418 246.5,224C 245.079,240.896 252.913,247.729 270,244.5C 275.66,243.796 278.993,246.129 280,251.5C 283.131,253.166 284.631,252.166 284.5,248.5C 283.852,244.346 281.518,241.512 277.5,240C 270.061,239.93 262.728,239.263 255.5,238C 247.816,228.658 249.816,221.991 261.5,218C 273.473,216.504 285.473,215.337 297.5,214.5 Z"/></g>
<g><path style="opacity:1" fill="#627586" d="M 313.5,192.5 C 317.229,193.013 320.896,193.846 324.5,195C 330.555,198.243 336.888,200.91 343.5,203C 346.859,205.266 350.192,207.433 353.5,209.5C 351.461,210.911 350.461,212.911 350.5,215.5C 362.167,219.833 370.167,227.833 374.5,239.5C 373.127,239.657 371.793,239.49 370.5,239C 365.941,232.836 360.941,227.169 355.5,222C 352.623,220.298 349.623,218.798 346.5,217.5C 344.611,218.604 342.945,219.937 341.5,221.5C 349.799,227.633 356.965,234.966 363,243.5C 363.494,245.134 363.66,246.801 363.5,248.5C 362.022,248.762 360.689,248.429 359.5,247.5C 354.114,238.921 347.448,231.421 339.5,225C 336.478,224.364 334.978,225.53 335,228.5C 341.047,233.88 346.38,239.88 351,246.5C 351.977,248.74 352.477,251.073 352.5,253.5C 348.625,254.126 346.791,252.459 347,248.5C 342.548,242.047 337.381,236.214 331.5,231C 328.273,231.056 327.273,232.556 328.5,235.5C 324.371,231.712 319.704,228.712 314.5,226.5C 314.42,215.157 314.087,203.824 313.5,192.5 Z"/></g>
<g><path style="opacity:0.807" fill="#7e868e" d="M 373.5,211.5 C 378.596,212.689 381.929,215.689 383.5,220.5C 382.523,223.287 382.19,226.287 382.5,229.5C 377.687,228.92 374.687,226.253 373.5,221.5C 373.5,218.167 373.5,214.833 373.5,211.5 Z"/></g>
<g><path style="opacity:1" fill="#cd4f4f" d="M 266.5,219.5 C 270.182,219.335 273.848,219.501 277.5,220C 273.016,220.871 268.683,222.204 264.5,224C 264.027,227.751 263.861,231.584 264,235.5C 257.623,236.795 254.623,234.128 255,227.5C 257.476,222.693 261.31,220.027 266.5,219.5 Z"/></g>
<g><path style="opacity:1" fill="#db7e71" d="M 297.5,214.5 C 297.56,213.957 297.893,213.624 298.5,213.5C 299.82,221.323 299.82,228.99 298.5,236.5C 298.825,228.981 298.492,221.648 297.5,214.5 Z"/></g>
<g><path style="opacity:1" fill="#006380" d="M 185.5,197.5 C 185.5,199.167 185.5,200.833 185.5,202.5C 163.118,208.439 145.618,221.106 133,240.5C 131.834,243.503 130.167,246.17 128,248.5C 126.85,252.112 126.017,255.778 125.5,259.5C 124.167,259.5 122.833,259.5 121.5,259.5C 122.327,254.364 123.66,249.364 125.5,244.5C 132.654,232.341 141.654,221.674 152.5,212.5C 156.874,210.095 161.207,207.595 165.5,205C 171.798,201.589 178.465,199.089 185.5,197.5 Z"/></g>
<g><path style="opacity:1" fill="#0989af" d="M 395.5,255.5 C 393.905,257.111 392.739,259.111 392,261.5C 389.108,270.621 385.108,279.287 380,287.5C 363.195,303.643 344.695,317.476 324.5,329C 317.788,331.679 311.122,334.345 304.5,337C 299.306,338.9 293.973,340.067 288.5,340.5C 290.878,338.08 293.878,336.913 297.5,337C 301.945,334.443 306.611,332.443 311.5,331C 323.53,324.635 332.53,315.302 338.5,303C 344.891,289.488 347.224,275.321 345.5,260.5C 358.948,253.942 371.615,246.109 383.5,237C 384.252,236.329 384.586,235.496 384.5,234.5C 386.963,233.767 389.297,232.767 391.5,231.5C 392.167,231.833 392.833,232.167 393.5,232.5C 396.768,240.146 397.434,247.812 395.5,255.5 Z"/></g>
<g><path style="opacity:1" fill="#0387af" d="M 223.5,163.5 C 222.284,165.451 220.618,166.951 218.5,168C 206.585,167.298 196.918,171.465 189.5,180.5C 158.117,189.268 135.284,208.268 121,237.5C 120.506,239.134 120.34,240.801 120.5,242.5C 122.39,242.703 123.89,242.037 125,240.5C 130.475,227.69 138.308,216.523 148.5,207C 155.559,201.609 162.893,196.609 170.5,192C 174.999,189.388 179.832,187.554 185,186.5C 185.765,186.57 186.265,186.903 186.5,187.5C 185.793,190.786 185.46,194.119 185.5,197.5C 178.465,199.089 171.798,201.589 165.5,205C 161.207,207.595 156.874,210.095 152.5,212.5C 141.654,221.674 132.654,232.341 125.5,244.5C 123.66,249.364 122.327,254.364 121.5,259.5C 122.833,259.5 124.167,259.5 125.5,259.5C 126.017,255.778 126.85,252.112 128,248.5C 130.167,246.17 131.834,243.503 133,240.5C 145.618,221.106 163.118,208.439 185.5,202.5C 185.665,205.85 185.498,209.183 185,212.5C 181.664,215.169 177.831,216.669 173.5,217C 159.909,224.91 147.742,234.743 137,246.5C 133,253.833 129,261.167 125,268.5C 123.844,272.418 123.344,276.418 123.5,280.5C 124.675,280.719 125.675,280.386 126.5,279.5C 128.032,271.768 131.199,264.768 136,258.5C 136.333,257.167 136.667,255.833 137,254.5C 140.764,249.397 144.93,244.564 149.5,240C 154.781,236.719 159.447,232.719 163.5,228C 170.448,224.351 177.448,220.851 184.5,217.5C 185.484,220.428 185.817,223.428 185.5,226.5C 153.223,238.952 135.556,262.452 132.5,297C 134.651,302.242 135.984,307.742 136.5,313.5C 124.573,298.627 116.74,281.627 113,262.5C 112.5,255.174 112.334,247.841 112.5,240.5C 113.226,237.821 114.059,235.154 115,232.5C 119.701,225.09 124.034,217.423 128,209.5C 134.045,201.954 140.879,195.287 148.5,189.5C 159.295,183.935 169.962,178.102 180.5,172C 193.247,168.438 206.08,165.272 219,162.5C 220.533,162.773 222.033,163.106 223.5,163.5 Z"/></g>
<g><path style="opacity:1" fill="#8aa6c2" d="M 353.5,209.5 C 355.687,210.758 358.02,211.758 360.5,212.5C 365.109,215.11 369.442,218.11 373.5,221.5C 374.687,226.253 377.687,228.92 382.5,229.5C 383.441,231.05 384.107,232.716 384.5,234.5C 384.586,235.496 384.252,236.329 383.5,237C 371.615,246.109 358.948,253.942 345.5,260.5C 342.563,250.448 336.896,242.115 328.5,235.5C 327.273,232.556 328.273,231.056 331.5,231C 337.381,236.214 342.548,242.047 347,248.5C 346.791,252.459 348.625,254.126 352.5,253.5C 352.477,251.073 351.977,248.74 351,246.5C 346.38,239.88 341.047,233.88 335,228.5C 334.978,225.53 336.478,224.364 339.5,225C 347.448,231.421 354.114,238.921 359.5,247.5C 360.689,248.429 362.022,248.762 363.5,248.5C 363.66,246.801 363.494,245.134 363,243.5C 356.965,234.966 349.799,227.633 341.5,221.5C 342.945,219.937 344.611,218.604 346.5,217.5C 349.623,218.798 352.623,220.298 355.5,222C 360.941,227.169 365.941,232.836 370.5,239C 371.793,239.49 373.127,239.657 374.5,239.5C 370.167,227.833 362.167,219.833 350.5,215.5C 350.461,212.911 351.461,210.911 353.5,209.5 Z"/></g>
<g><path style="opacity:1" fill="#076481" d="M 185.5,202.5 C 186.492,210.316 186.826,218.316 186.5,226.5C 186.167,226.5 185.833,226.5 185.5,226.5C 185.817,223.428 185.484,220.428 184.5,217.5C 177.448,220.851 170.448,224.351 163.5,228C 159.447,232.719 154.781,236.719 149.5,240C 144.93,244.564 140.764,249.397 137,254.5C 136.667,255.833 136.333,257.167 136,258.5C 131.199,264.768 128.032,271.768 126.5,279.5C 125.675,280.386 124.675,280.719 123.5,280.5C 123.344,276.418 123.844,272.418 125,268.5C 129,261.167 133,253.833 137,246.5C 147.742,234.743 159.909,224.91 173.5,217C 177.831,216.669 181.664,215.169 185,212.5C 185.498,209.183 185.665,205.85 185.5,202.5 Z"/></g>
<g><path style="opacity:1" fill="#006582" d="M 379.5,248.5 C 381.167,248.5 382.833,248.5 384.5,248.5C 385.074,261.269 382.574,273.269 377,284.5C 375.989,285.337 374.822,285.67 373.5,285.5C 375.315,278.915 377.148,272.249 379,265.5C 379.499,259.843 379.666,254.176 379.5,248.5 Z"/></g>
<g><path style="opacity:1" fill="#006582" d="M 368.5,252.5 C 369.822,252.33 370.989,252.663 372,253.5C 372.828,258.202 372.662,262.869 371.5,267.5C 369.544,275.951 367.211,284.284 364.5,292.5C 362.356,296.479 359.522,299.813 356,302.5C 354.72,302.387 353.887,301.72 353.5,300.5C 355.473,297.36 357.64,294.36 360,291.5C 361.333,288.167 362.667,284.833 364,281.5C 366.536,271.962 368.036,262.295 368.5,252.5 Z"/></g>
<g><path style="opacity:1" fill="#006784" d="M 357.5,255.5 C 358.822,255.33 359.989,255.663 361,256.5C 360.338,272.48 356.505,287.813 349.5,302.5C 347.28,306.079 344.28,308.412 340.5,309.5C 341.837,305.167 344.003,301.167 347,297.5C 352.561,284.036 356.061,270.036 357.5,255.5 Z"/></g>
<g><path style="opacity:1" fill="#317b38" d="M 185.5,226.5 C 185.833,226.5 186.167,226.5 186.5,226.5C 186.5,229.167 186.5,231.833 186.5,234.5C 179.363,237.303 172.696,240.969 166.5,245.5C 158.811,252.688 151.645,260.355 145,268.5C 136.318,285.992 137.985,302.325 150,317.5C 152.5,320 155,322.5 157.5,325C 162.477,326.822 167.143,329.155 171.5,332C 190.911,339.3 211.078,342.8 232,342.5C 241.838,342.092 251.671,341.592 261.5,341C 272.325,337.635 283.325,334.635 294.5,332C 301.781,329.109 308.781,325.776 315.5,322C 320.628,318.703 325.294,314.87 329.5,310.5C 331.177,307.147 333.343,304.147 336,301.5C 342.15,286.539 343.15,271.206 339,255.5C 332.795,246.123 324.629,239.123 314.5,234.5C 314.5,231.833 314.5,229.167 314.5,226.5C 319.704,228.712 324.371,231.712 328.5,235.5C 336.896,242.115 342.563,250.448 345.5,260.5C 347.224,275.321 344.891,289.488 338.5,303C 332.53,315.302 323.53,324.635 311.5,331C 306.611,332.443 301.945,334.443 297.5,337C 293.878,336.913 290.878,338.08 288.5,340.5C 270.114,345.418 251.28,347.418 232,346.5C 215.901,346.867 200.067,345.2 184.5,341.5C 175.777,338.527 167.11,335.027 158.5,331C 154.844,327.837 150.844,325.171 146.5,323C 142.639,320.304 139.306,317.137 136.5,313.5C 135.984,307.742 134.651,302.242 132.5,297C 135.556,262.452 153.223,238.952 185.5,226.5 Z"/></g>
<g><path style="opacity:1" fill="#43a830" d="M 186.5,234.5 C 188.153,243.12 190.153,251.787 192.5,260.5C 187.552,279.794 182.219,298.961 176.5,318C 176.645,318.772 176.978,319.439 177.5,320C 186.827,321.051 196.16,322.051 205.5,323C 237.342,323.798 269.176,324.632 301,325.5C 302.167,325.167 303.333,324.833 304.5,324.5C 300.656,323.018 296.656,322.185 292.5,322C 282.172,321.5 271.839,321.334 261.5,321.5C 261.586,317.143 261.92,312.81 262.5,308.5C 286.244,311.926 297.411,301.593 296,277.5C 301.08,273.091 305.414,268.091 309,262.5C 311.888,253.249 313.721,243.915 314.5,234.5C 324.629,239.123 332.795,246.123 339,255.5C 343.15,271.206 342.15,286.539 336,301.5C 333.343,304.147 331.177,307.147 329.5,310.5C 325.294,314.87 320.628,318.703 315.5,322C 308.781,325.776 301.781,329.109 294.5,332C 283.325,334.635 272.325,337.635 261.5,341C 251.671,341.592 241.838,342.092 232,342.5C 211.078,342.8 190.911,339.3 171.5,332C 167.143,329.155 162.477,326.822 157.5,325C 155,322.5 152.5,320 150,317.5C 137.985,302.325 136.318,285.992 145,268.5C 151.645,260.355 158.811,252.688 166.5,245.5C 172.696,240.969 179.363,237.303 186.5,234.5 Z"/></g>
<g><path style="opacity:1" fill="#ccdfa8" d="M 192.5,260.5 C 193.537,261.93 194.204,263.597 194.5,265.5C 188.9,282.563 184.234,299.897 180.5,317.5C 207.435,319.99 234.435,321.323 261.5,321.5C 271.839,321.334 282.172,321.5 292.5,322C 296.656,322.185 300.656,323.018 304.5,324.5C 303.333,324.833 302.167,325.167 301,325.5C 269.176,324.632 237.342,323.798 205.5,323C 196.16,322.051 186.827,321.051 177.5,320C 176.978,319.439 176.645,318.772 176.5,318C 182.219,298.961 187.552,279.794 192.5,260.5 Z"/></g>
<g><path style="opacity:1" fill="#876530" d="M 194.5,265.5 C 196.721,270.187 198.054,275.187 198.5,280.5C 197.25,280.577 196.417,281.244 196,282.5C 193.812,292.587 191.312,302.587 188.5,312.5C 188.608,313.442 188.941,314.275 189.5,315C 206.167,315.575 222.833,316.075 239.5,316.5C 239.694,313.67 240.361,311.004 241.5,308.5C 248.5,308.5 255.5,308.5 262.5,308.5C 261.92,312.81 261.586,317.143 261.5,321.5C 234.435,321.323 207.435,319.99 180.5,317.5C 184.234,299.897 188.9,282.563 194.5,265.5 Z"/></g>
<g><path style="opacity:1" fill="#d1d0a1" d="M 248.5,313.5 C 250.5,313.5 252.5,313.5 254.5,313.5C 254.5,315.167 254.5,316.833 254.5,318.5C 252.5,318.5 250.5,318.5 248.5,318.5C 248.5,316.833 248.5,315.167 248.5,313.5 Z"/></g>
<g><path style="opacity:1" fill="#46a42e" d="M 198.5,280.5 C 198.25,285.58 198.75,290.58 200,295.5C 200.516,298.547 202.016,300.88 204.5,302.5C 206.8,305.324 209.8,307.157 213.5,308C 222.827,308.5 232.161,308.666 241.5,308.5C 240.361,311.004 239.694,313.67 239.5,316.5C 222.833,316.075 206.167,315.575 189.5,315C 188.941,314.275 188.608,313.442 188.5,312.5C 191.312,302.587 193.812,292.587 196,282.5C 196.417,281.244 197.25,280.577 198.5,280.5 Z"/></g>
<g><path style="opacity:1" fill="#fae5cb" d="M 255.5,254.5 C 257.39,254.297 258.89,254.963 260,256.5C 261.036,263.799 261.536,271.132 261.5,278.5C 263.527,278.338 265.527,278.505 267.5,279C 268.554,280.388 268.72,281.888 268,283.5C 262,284.833 256,284.833 250,283.5C 249.044,279.075 250.877,277.408 255.5,278.5C 255.827,273.786 255.493,269.12 254.5,264.5C 252.13,266.098 250.464,265.598 249.5,263C 250.927,259.743 252.927,256.91 255.5,254.5 Z"/></g>
<g><path style="opacity:1" fill="#fae6cc" d="M 226.5,254.5 C 227.873,254.343 229.207,254.51 230.5,255C 231.418,257.133 231.584,259.3 231,261.5C 232.011,262.337 233.178,262.67 234.5,262.5C 234.19,258.668 235.857,257.168 239.5,258C 240.117,260.758 240.284,263.591 240,266.5C 242.916,267.528 245.083,269.362 246.5,272C 245.788,273.442 244.621,274.275 243,274.5C 241.433,273.144 239.6,272.477 237.5,272.5C 237.852,275.514 239.185,278.014 241.5,280C 240.313,282.59 238.48,283.09 236,281.5C 235.163,283.351 234.329,285.184 233.5,287C 232.101,287.595 230.768,287.428 229.5,286.5C 228.55,284.402 228.55,282.235 229.5,280C 229.231,278.393 228.397,277.226 227,276.5C 226.014,278.778 225.18,281.111 224.5,283.5C 222.994,284.747 221.494,284.747 220,283.5C 219.687,280.405 220.187,277.405 221.5,274.5C 219.543,272.515 217.21,271.015 214.5,270C 212.91,267.52 213.41,265.687 216,264.5C 218.227,265.363 220.393,266.363 222.5,267.5C 223.703,264.569 222.703,262.569 219.5,261.5C 218.462,256.21 220.295,255.21 225,258.5C 225.41,257.099 225.91,255.766 226.5,254.5 Z"/></g>
<g><path style="opacity:1" fill="#c32e29" d="M 228.5,267.5 C 232.208,267.957 233.041,269.623 231,272.5C 229.108,271.383 228.275,269.716 228.5,267.5 Z"/></g>
<g><path style="opacity:1" fill="#cd5050" d="M 228.5,229.5 C 232.375,229.085 236.042,229.585 239.5,231C 233.728,232.35 228.061,234.016 222.5,236C 221.446,237.388 221.28,238.888 222,240.5C 227.286,244.894 233.119,248.394 239.5,251C 230.428,247.632 222.428,249.299 215.5,256C 214.167,256.667 212.833,256.667 211.5,256C 207.281,248.683 205.114,240.85 205,232.5C 210.383,232.465 215.883,232.298 221.5,232C 223.927,231.098 226.26,230.264 228.5,229.5 Z"/></g>
<g><path style="opacity:1" fill="#b0bac6" d="M 112.5,240.5 C 112.334,247.841 112.5,255.174 113,262.5C 116.74,281.627 124.573,298.627 136.5,313.5C 139.306,317.137 142.639,320.304 146.5,323C 150.844,325.171 154.844,327.837 158.5,331C 167.11,335.027 175.777,338.527 184.5,341.5C 185.609,342.29 186.942,342.79 188.5,343C 189.191,344.067 189.691,345.234 190,346.5C 190.414,346.043 190.914,345.709 191.5,345.5C 192.354,346.522 193.354,347.355 194.5,348C 193.429,349.825 194.096,350.992 196.5,351.5C 198.573,346.643 201.906,345.476 206.5,348C 205.333,348.5 204.5,349.333 204,350.5C 203.586,350.043 203.086,349.709 202.5,349.5C 201.417,350.365 201.251,351.365 202,352.5C 204.881,350.972 207.214,351.638 209,354.5C 211.112,350.873 212.779,350.873 214,354.5C 216.473,353.88 218.973,353.214 221.5,352.5C 219.833,351.167 218.167,349.833 216.5,348.5C 217.333,348.167 218.167,347.833 219,347.5C 228.144,348.266 237.31,348.766 246.5,349C 242.704,350.336 241.704,352.836 243.5,356.5C 246.977,357.825 248.81,356.492 249,352.5C 251.247,354.489 252.747,356.489 253.5,358.5C 251.234,359.314 248.9,359.814 246.5,360C 252.175,360.464 252.508,361.131 247.5,362C 249.881,363.766 252.548,364.932 255.5,365.5C 256.308,365.192 256.975,364.692 257.5,364C 257.87,362.39 257.203,360.89 255.5,359.5C 258.504,357.096 261.171,357.263 263.5,360C 265.235,360.651 266.902,360.485 268.5,359.5C 269.506,359.938 269.506,360.604 268.5,361.5C 269.376,362.251 270.376,362.751 271.5,363C 270.54,364.419 269.707,365.919 269,367.5C 268.086,366.346 267.253,366.513 266.5,368C 268.025,369.009 269.692,369.509 271.5,369.5C 271.351,370.552 271.517,371.552 272,372.5C 274.071,373.103 275.238,374.436 275.5,376.5C 238.997,384.176 203.33,381.342 168.5,368C 156.649,361.485 145.316,354.152 134.5,346C 102.793,317.344 94.6266,283.177 110,243.5C 110.377,242.058 111.21,241.058 112.5,240.5 Z"/></g>
<g><path style="opacity:1" fill="#afbac6" d="M 395.5,255.5 C 397.219,269.557 397.719,283.89 397,298.5C 396.505,305.002 394.505,311.335 391,317.5C 387.593,320.738 384.759,324.405 382.5,328.5C 370.896,338.598 358.562,347.765 345.5,356C 333.278,360.853 320.945,365.52 308.5,370C 297.636,372.484 286.636,374.651 275.5,376.5C 275.238,374.436 274.071,373.103 272,372.5C 271.517,371.552 271.351,370.552 271.5,369.5C 269.692,369.509 268.025,369.009 266.5,368C 267.253,366.513 268.086,366.346 269,367.5C 269.707,365.919 270.54,364.419 271.5,363C 270.376,362.751 269.376,362.251 268.5,361.5C 269.506,360.604 269.506,359.938 268.5,359.5C 266.902,360.485 265.235,360.651 263.5,360C 261.171,357.263 258.504,357.096 255.5,359.5C 257.203,360.89 257.87,362.39 257.5,364C 256.975,364.692 256.308,365.192 255.5,365.5C 252.548,364.932 249.881,363.766 247.5,362C 252.508,361.131 252.175,360.464 246.5,360C 248.9,359.814 251.234,359.314 253.5,358.5C 252.747,356.489 251.247,354.489 249,352.5C 248.81,356.492 246.977,357.825 243.5,356.5C 241.704,352.836 242.704,350.336 246.5,349C 237.31,348.766 228.144,348.266 219,347.5C 218.167,347.833 217.333,348.167 216.5,348.5C 218.167,349.833 219.833,351.167 221.5,352.5C 218.973,353.214 216.473,353.88 214,354.5C 212.779,350.873 211.112,350.873 209,354.5C 207.214,351.638 204.881,350.972 202,352.5C 201.251,351.365 201.417,350.365 202.5,349.5C 203.086,349.709 203.586,350.043 204,350.5C 204.5,349.333 205.333,348.5 206.5,348C 201.906,345.476 198.573,346.643 196.5,351.5C 194.096,350.992 193.429,349.825 194.5,348C 193.354,347.355 192.354,346.522 191.5,345.5C 190.914,345.709 190.414,346.043 190,346.5C 189.691,345.234 189.191,344.067 188.5,343C 186.942,342.79 185.609,342.29 184.5,341.5C 200.067,345.2 215.901,346.867 232,346.5C 251.28,347.418 270.114,345.418 288.5,340.5C 293.973,340.067 299.306,338.9 304.5,337C 311.122,334.345 317.788,331.679 324.5,329C 344.695,317.476 363.195,303.643 380,287.5C 385.108,279.287 389.108,270.621 392,261.5C 392.739,259.111 393.905,257.111 395.5,255.5 Z"/></g>
</svg>
